<?xml version="1.0" encoding="utf-8"?>
<svg version="1.1" id="Layer_1" xmlns="http://www.w3.org/2000/svg" xmlns:xlink="http://www.w3.org/1999/xlink" x="0px" y="0px"
	 viewBox="0 0 402.9 382.4" style="enable-background:new 0 0 402.9 382.4;" xml:space="preserve">
<style type="text/css">
	.st1{fill:#68217A;}
	.st2{fill:#CF1AFC;}
</style>
<g>
	<path class="st0" d="M51.6,192.1c0.5-12.5-10.6-23.4-23.1-23.2C15.9,169,5.5,179.2,5.5,192c0.1,12.9,9.9,23,23,23.1
		C41.3,215.2,51.8,205,51.6,192.1z"/>
	<path class="st1" d="M213.4,376.1c-85.7,0-160-59-179.7-142.6c-0.7-3-1.2-6-1.9-9c-0.2-0.9,0-1.3,1-1.4c3.1-0.3,6-1,8.9-2.2
		c4.7-1.9,8.7-4.8,12-8.6c3.3-3.8,5.6-8.1,6.8-12.9c1-4,1.4-8,0.8-12.1c-0.5-3.1-1.2-6.2-2.6-9.1c-2.3-4.9-5.5-9.1-9.9-12.4
		c-3.7-2.8-7.9-4.6-12.4-5.7c-1.1-0.3-2.3-0.5-3.4-0.5c-1.2,0-1.3-0.5-1.1-1.6c0.8-4.2,1.7-8.4,2.8-12.5
		C49.1,88.3,90.9,40.9,145.7,19.4C162.1,13,178.9,9,196.4,7.4c13.7-1.3,27.5-1,41.1,0.8c32.2,4.3,61.3,16.2,87.3,35.8
		c21.5,16.2,38.5,36.2,51.3,59.9c9.5,17.6,15.9,36.3,19.3,56c2.4,13.8,3.2,27.6,2.4,41.6c-4.7,82.9-63.4,151.8-143.5,170
		C240.9,374.6,227.2,376.1,213.4,376.1z M134.8,186.4c-0.1,0-0.2,0.1-0.2,0.1c-0.2-0.3-0.5-0.6-0.7-1
		c-11.8-18.1-23.5-36.2-35.3-54.4c-0.6-0.9-1.2-1.3-2.3-1.3c-6.2-0.2-12.4-0.5-18.6-0.8c-0.8,0-1,0.1-1,1c0.1,3.2,0.1,6.5,0.2,9.7
		c0.3,24,0.6,48,0.8,72c0,1,0.2,1.4,1.3,1.3c4.8-0.1,9.6-0.1,14.4,0c1.1,0,1.4-0.3,1.4-1.4c0-18.7,0-37.4,0-56.1c0-0.4,0-0.8,0-1.5
		c0.5,0.7,0.8,1.1,1,1.5c12.8,19.1,25.5,38.3,38.3,57.4c0.4,0.6,0.6,1.1,1.5,1.1c5.4-0.1,10.8,0,16.2,0c0.8,0,1-0.3,1-1
		c0-27.3,0-54.6,0-81.9c0-0.9-0.3-1.1-1.1-1c-5.2,0-10.4,0.1-15.6,0c-1.1,0-1.4,0.3-1.4,1.4c0,18,0,35.9,0,53.9
		C134.8,185.5,134.8,185.9,134.8,186.4z M171.7,171.4c0,13.8,0,27.5,0,41.3c0,0.8,0,1.3,1.1,1.3c16.3,0,32.5,0,48.8,0
		c0.9,0,1.1-0.3,1.1-1.2c0-4.6-0.1-9.1,0-13.7c0-1-0.3-1.2-1.3-1.2c-9.9,0-19.7,0-29.6,0c-0.9,0-1.2-0.2-1.1-1.2
		c0.3-5.2,0.6-10.4,0.9-15.6c0-1.1,0.3-1.3,1.4-1.3c8.2,0,16.5,0,24.7,0c0.8,0,1.1-0.2,1.1-1.1c0-4.6-0.1-9.1,0-13.7
		c0-1-0.2-1.3-1.3-1.3c-8.5,0.1-16.9,0-25.4,0.1c-1.1,0-1.4-0.3-1.3-1.4c0.1-5.4,0.1-10.9,0-16.3c0-1,0.2-1.3,1.3-1.3
		c9.2,0.1,18.3,0,27.5,0c0.9,0,1.3-0.1,1.3-1.2c-0.1-4.5-0.1-9,0-13.6c0-1-0.3-1.2-1.3-1.2c-15.5,0-31,0-46.5,0
		c-1,0-1.2,0.3-1.2,1.3C171.7,143.8,171.7,157.6,171.7,171.4z M251.6,179.2c0,11.1,0,22.2,0,33.4c0,1,0.3,1.3,1.3,1.3
		c5.8,0,11.6-0.1,17.4,0c1.2,0,1.4-0.3,1.4-1.4c0-22,0-44.1-0.1-66.1c0-1.1,0.2-1.5,1.5-1.5c7.1,0.1,14.2,0,21.3,0.1
		c1,0,1.2-0.3,1.2-1.3c-0.1-4.5-0.1-9,0-13.6c0-0.9-0.2-1.2-1.2-1.2c-21.9,0-43.8,0-65.7,0c-0.9,0-1.2,0.2-1.2,1.1
		c0.1,4.6,0.1,9.2,0,13.8c0,0.9,0.3,1.1,1.2,1.1c7.2,0,14.4,0,21.6,0c1.1,0,1.3,0.3,1.3,1.3C251.6,157.2,251.6,168.2,251.6,179.2z
		 M219.6,279.9c0,0.8,0,1.6,0,2.5c0,0.7,0.2,0.9,0.9,0.9c1-0.1,2.1-0.1,3.1,0c0.9,0.1,1.1-0.3,1.1-1.2c0-5.3,0-10.6,0-16
		c0-8.5,0-17,0-25.4c0-0.9-0.1-1.3-1.2-1.2c-1.1,0.1-2.2,0.1-3.2,0c-0.8-0.1-1.1,0.2-1.1,1c0,4.4,0,8.8,0,13.2c0,0.3,0.2,0.7-0.2,1
		c-0.7-0.8-1.4-1.5-2.2-2c-5.7-4-14.2-1.8-17.4,4.7c-3.1,6.2-3.2,12.7-0.3,19C203.1,285.3,214.7,286.5,219.6,279.9z M260.5,283.3
		c-0.6-1.4-1.1-2.7-1.3-4.1c-0.3-3.2-0.3-6.4-0.3-9.6c0-3.6,0.1-7.1-0.1-10.7c-0.2-3-1.5-5.4-4.4-6.6c-5.5-2.2-11-2-16.4,0.3
		c-3.2,1.3-4.8,4.1-5.6,7.3c-0.1,0.6,0,0.8,0.6,0.8c1.2,0.1,2.4,0.2,3.6,0.5c0.8,0.2,1.1-0.1,1.3-0.9c0.7-2.3,1.9-4,4.4-4.6
		c1.9-0.5,3.9-0.6,5.8-0.2c4.1,0.7,5.6,2.6,5.5,6.8c0,0.6-0.2,0.9-0.8,1.1c-1.3,0.3-2.6,0.6-4,0.9c-3.1,0.6-6.3,0.7-9.5,1.5
		c-5.6,1.3-8.7,5.7-7.8,11c0.7,4,4.3,6.9,9,7.2c4.7,0.3,8.9-0.8,12.5-3.8c0.7-0.5,1-0.7,1.1,0.4c0.1,0.7,0.4,1.4,0.5,2.1
		c0.1,0.5,0.4,0.7,0.9,0.7C257.1,283.3,258.7,283.3,260.5,283.3z M95.3,267.4c0,0.6,0,1.3,0,1.9c0.3,3.8,1.2,7.4,3.9,10.3
		c3.4,3.7,7.8,4.7,12.6,4.3c6.2-0.5,11.2-4.8,12.5-10.8c0.6-2.9,0.8-5.9,0.5-8.9c-0.7-7.2-5.4-12.4-12.6-13.2
		c-5.7-0.7-10.7,0.9-14.2,5.8C95.7,260,95.2,263.7,95.3,267.4z M325.8,267.3c0-0.6-0.1-1.3-0.1-1.9c-0.3-9.1-7-15.1-16.1-14.5
		c-6.2,0.4-11,4.2-12.7,10c-0.9,3.2-1,6.6-0.6,9.9c0.3,3.2,1.3,6.1,3.4,8.5c4.3,4.7,9.7,5.7,15.5,4.2c5.4-1.4,8.8-5,10-10.5
		C325.6,271,325.7,269.2,325.8,267.3z M170,255.8c0-1.2-0.1-2.2,0-3.1c0.1-0.8-0.1-1.2-1-1.1c-0.8,0.1-1.7,0.1-2.5,0
		c-1.1-0.1-1.4,0.2-1.4,1.3c0.1,9.6,0,19.2,0,28.8c0,1.6,0,1.6,1.6,1.6c1.2,0,2.9,0.4,3.6-0.2c0.8-0.7,0.2-2.4,0.3-3.7
		c0.1-5.5-0.2-11,0.2-16.4c0.5-6.3,5.7-8,9.8-7.3c2.5,0.4,4.2,2.1,4.7,4.6c0.2,1,0.3,2.1,0.3,3.1c0,6.3,0,12.6,0,18.8
		c0,0.8,0.2,1.1,1.1,1.1c1.2-0.1,2.4-0.1,3.6,0c0.7,0,0.8-0.2,0.8-0.8c0-7.3,0-14.6-0.1-21.9c0-3-1-5.7-3.5-7.5
		c-4.3-3.2-11.5-2.8-15.5,0.8C171.3,254.4,170.7,255,170,255.8z M337.1,255.6c-0.1,0-0.2-0.1-0.3-0.1c0-1.3,0.5-3-0.1-3.7
		c-0.7-0.8-2.5-0.1-3.8-0.3c-0.8-0.1-0.9,0.2-0.9,0.9c0,2.6,0,5.3,0,7.9c0,7.2,0,14.5,0,21.7c0,1,0.3,1.3,1.2,1.2
		c1-0.1,2.1-0.1,3.1,0c0.9,0.1,1.2-0.1,1.1-1.1c-0.1-2.2-0.1-4.3,0-6.5c0.1-4.3-0.2-8.5,0.2-12.8c0.6-6.2,5.7-7.9,9.7-7.2
		c2.5,0.4,4.2,2.1,4.7,4.6c0.3,1.3,0.3,2.7,0.3,4.1c0,6,0,11.9,0,17.9c0,0.9,0.3,1.2,1.1,1.1c1.2-0.1,2.3,0,3.5,0
		c0.6,0,0.8-0.1,0.8-0.8c0-7.3,0-14.6-0.1-21.9c-0.1-3.6-1.3-6.6-4.8-8.4c-2.5-1.3-5.2-1.6-7.9-1.2
		C341.8,251.4,339.1,253,337.1,255.6z M151.9,278.9c0,1.5,0,2.5,0,3.6c0,0.6,0.2,0.8,0.8,0.8c1.1,0,2.2-0.1,3.2,0
		c0.7,0,0.9-0.3,0.8-0.9c0-10,0-20,0-30c0-0.7-0.2-0.9-0.9-0.9c-1.1,0-2.2,0.1-3.4,0c-1-0.1-1.2,0.3-1.2,1.3c0,5.8,0,11.6,0,17.4
		c-0.1,5.5-2.6,8.5-7.5,9.1c-3.8,0.5-6.7-1.7-7.1-5.5c-0.1-1-0.2-2-0.2-3c0-6,0-12,0-18c0-0.9-0.1-1.4-1.2-1.3c-1,0.1-2,0.1-3,0
		c-1-0.1-1.3,0.2-1.3,1.2c0.1,4,0,7.9,0,11.9c0,3.4-0.2,6.9,0.1,10.3c0.2,2.7,1,5.2,3.3,6.8c4,2.8,8.3,3.1,12.7,1.1
		C149.1,282.1,150.4,280.7,151.9,278.9z M86.9,269.6c0-4.2,0-8.5,0-12.7c0-0.8,0.2-1.1,1-1c1.3,0.1,2.6-0.1,4,0
		c1.1,0.1,1.4-0.3,1.3-1.3c-0.1-0.9,0.3-2.2-0.2-2.8c-0.5-0.6-1.8-0.2-2.7-0.2c-3.6,0-3.6,0-3.3-3.6c0.3-3.1,1.3-4,4.4-4.1
		c1.1,0,2.5,0.7,3.1,0c0.6-0.7,0.5-2.1,0.7-3.2c0-0.1,0-0.2,0.1-0.4c0.2-0.7-0.1-0.9-0.7-1c-1.9-0.3-3.9-0.5-5.8-0.3
		c-4,0.4-6.3,2.5-6.9,6.1c-0.3,1.8-0.2,3.6-0.2,5.4c0,0.9-0.2,1.2-1.1,1.1c-1-0.1-2,0-3,0c-0.5,0-0.7,0.1-0.7,0.7
		c-0.3,3.6-0.3,3.6,3.3,3.6c0,0,0.1,0,0.1,0c1-0.2,1.4,0.2,1.4,1.3c-0.1,5.1,0,10.2,0,15.4c0,3.3,0,6.6,0,9.8c0,0.7,0.2,1,0.9,0.9
		c1.2-0.1,2.3-0.1,3.5,0c0.8,0.1,1-0.3,1-1C86.9,278,86.9,273.8,86.9,269.6z M273.4,240.5c-1.8,1.1-3.4,2-5,3
		c-0.4,0.2-0.4,0.6-0.4,1c0,1.5,0,3,0,4.6c0,2.5,0,2.6-2.6,2.5c-1.2,0-1.4,0.3-1.4,1.4c0.1,2.9,0,2.9,2.8,2.9c1,0,1.2,0.3,1.2,1.2
		c0,4,0,8,0,12c0,3-0.1,5.9,0.1,8.9c0.2,3.1,1.7,4.9,4.5,5.5c2.1,0.5,4.1,0.3,6.2,0c0.5-0.1,0.8-0.3,0.6-0.9
		c-0.2-0.7-0.2-1.4-0.3-2.1c-0.2-1.8-0.2-1.8-2-1.7c-0.4,0-0.9,0-1.3,0c-1.4-0.2-2.1-0.8-2.3-2.2c-0.1-0.5-0.1-1.1-0.1-1.7
		c0-5.6,0-11.1,0-16.7c0-2.3,0-2.3,2.2-2.3c3.4,0,3.3,0,3.3-3.4c0-0.8-0.3-0.9-1-0.9c-1.2,0-2.3,0-3.5,0c-0.8,0.1-1.1-0.2-1.1-1
		C273.4,247.3,273.4,244,273.4,240.5z M289.5,267.5c0-5,0-10,0-15c0-0.8-0.2-1-1-1c-1.1,0.1-2.2,0.1-3.2,0c-1-0.1-1.2,0.3-1.2,1.2
		c0,8.1,0,16.1,0,24.2c0,1.8,0,3.7,0,5.5c0,0.6,0.2,0.8,0.8,0.8c1.2,0,2.3-0.1,3.5,0c0.9,0.1,1.1-0.3,1.1-1.1
		C289.5,277.3,289.5,272.4,289.5,267.5z M284.2,242.5c0,1,0,1.8,0,2.6c0,0.6,0.2,0.8,0.8,0.8c1.3,0,2.5,0,3.8,0
		c0.6,0,0.8-0.2,0.8-0.8c0-1,0-2.1,0-3.1c0-2.3,0-2.3-2.3-2.3c-1,0-2.3-0.4-2.9,0.2C283.7,240.4,284.3,241.7,284.2,242.5z"/>
	<path class="st2" d="M51.6,192.1c0.1,12.9-10.4,23.2-23.1,23c-13.1-0.2-23-10.2-23-23.1c0-12.7,10.4-22.9,23.1-23.1
		C41,168.7,52.1,179.6,51.6,192.1z"/>
	<path class="st1" d="M219.7,267.8c0.1,1.9-0.2,4-0.8,5.9c-1.2,3.5-4,5.7-7.3,5.8c-3.2,0.1-6.4-1.9-7.7-5.3c-1.7-4.6-1.7-9.3,0-13.9
		c1.2-3.3,4.3-5.1,7.7-4.9c3.3,0.2,6.2,2.7,7.3,6.4C219.5,263.7,219.7,265.7,219.7,267.8z"/>
	<path class="st1" d="M243.5,279.8c-0.9,0-2-0.1-3.1-0.5c-2-0.8-3.3-2.5-3.3-4.6c0-2,1.2-3.7,3.3-4.4c2.4-0.8,4.9-0.9,7.4-1.4
		c1.6-0.3,3.2-0.6,4.8-1.2c0.6-0.2,1-0.2,0.9,0.6c-0.1,1.4-0.1,2.8-0.3,4.2C252.4,276.9,248.7,279.7,243.5,279.8z"/>
	<path class="st1" d="M119.3,267.2c0,2.2-0.2,4.2-0.9,6.1c-1.3,3.8-4.5,6.2-8.3,6.2c-3.9,0-7.1-2.2-8.4-6.1c-1.3-3.9-1.3-7.9,0-11.9
		c1.3-3.9,4.5-6.2,8.5-6.1c3.8,0,7,2.4,8.3,6.3C119.1,263.5,119.3,265.5,119.3,267.2z"/>
	<path class="st1" d="M320.2,267.4c0,2.9-0.3,5.9-2.1,8.3c-2.1,3.1-5.2,4.2-8.8,3.6c-3.6-0.6-5.8-2.9-6.9-6.3
		c-1.1-3.5-1.1-7.2-0.2-10.8c1.2-4.4,4.5-7,8.7-6.9c4.1,0,7.5,2.8,8.6,7.2C320.1,264.1,320.2,265.8,320.2,267.4z"/>
</g>
</svg>
