<?xml version="1.0" encoding="utf-8"?>
<svg version="1.1" id="Layer_1" xmlns="http://www.w3.org/2000/svg" xmlns:xlink="http://www.w3.org/1999/xlink" x="0px" y="0px"
	 viewBox="0 0 1713.8 486.6" xml:space="preserve">
<g>
	<path d="M464.9,266c0,43.3,0.2,86.6-0.1,130c-0.1,9.3-2.2,18.4-6.6,26.9c-4.7,9.2-11,16.8-19.2,22.8c-9.6,7.1-20.4,10.3-32.3,11.9
		c-12.6,1.7-25.2,0.8-37.8,0.9c-70.7,0.2-141.4,0.2-212.1,0c-5.7,0-11.4-1.2-17-2.4c-7.6-1.7-14.6-4.8-21-9.3
		c-8.3-5.9-15-13.3-19.8-22.4c-3.5-6.6-5.6-13.5-6.8-20.8c-0.5-3.1-0.7-6.3-0.7-9.5c0-85.6-0.1-171.2,0.1-256.8
		c0-8.4,1.8-16.7,5.2-24.6c5.4-12.7,13.9-22.5,25.6-29.5c9.4-5.6,19.6-8.6,30.7-8.6c83.9,0.1,167.8,0,251.7,0
		c11,0,20.9,3.6,30.3,9.1c8.3,4.9,14.9,11.6,20,19.6c4.8,7.5,7.8,15.8,9,24.7c1.6,11.9,0.8,23.8,0.9,35.6
		C464.9,197.7,464.9,231.8,464.9,266C464.9,266,464.9,266,464.9,266z M131.7,266c0,40.8,0,81.7,0,122.5c0,5.7,1.6,11.1,4.7,15.8
		c6.1,9.3,15.1,13.4,26.1,13.4c77.5,0,155,0.1,232.5,0c6.3,0,12.3-1.6,17.5-5.5c7.6-5.6,12-13.3,12.1-22.6
		c0.2-81.3,0.1-162.6,0.1-243.8c0-7-1.3-13.5-5.5-19.2c-4.9-6.7-11.3-11.3-19.7-11.6c-14.1-0.5-28.3-0.2-42.5-0.2
		c-65.8,0-131.5,0-197.2-0.1c-4.4,0-8.6,0.9-12.2,2.9c-10.3,5.7-15.8,14.8-15.8,26.6C131.7,184.8,131.7,225.4,131.7,266z"/>
	<path d="M1187.5,331.2c-1.5,1-2.5,1.5-3.2,2.2c-6.3,6.2-13.8,10.4-21.9,13.9c-8,3.5-16.3,5.3-24.9,6.1c-4.4,0.4-8.9,1.1-13.3,1.2
		c-3.9,0.1-7.8-0.2-11.7-0.7c-5.9-0.8-11.9-1.6-17.6-3.1c-5-1.2-9.9-3.1-14.6-5.1c-4.3-1.8-8.4-4.2-12.4-6.5
		c-7-4-13.1-9.3-18.7-15.1c-6-6.1-11.2-13-15.2-20.5c-2.8-5.4-4.9-11.2-7.2-16.8c-2.9-6.9-4.2-14.2-5-21.6c-1.5-14-1.5-28,1-41.9
		c1.5-8,3.7-15.9,6.9-23.3c5.2-11.9,12.6-22.4,22.2-31.4c8.1-7.6,17-13.8,27.2-18.3c10.1-4.6,20.7-7.4,31.8-8.1c7-0.5,14.1-1,21-0.6
		c8.5,0.5,16.9,1.8,25.1,4.6c8.7,3,16.8,6.9,23.8,12.9c3.6,3.1,6.8,6.8,10.1,10.2c0.5,0.5,0.9,1,1.8,2c0.2-1.5,0.4-2.3,0.4-3.1
		c0-6.1,0-12.3,0-18.5c0-3,0.4-3.5,3.4-3.5c15.9,0,31.8,0,47.8,0c3,0,3.4,0.4,3.4,3.5c0,64,0.1,128-0.1,192c0,12-2,23.8-5.6,35.3
		c-3.2,10.4-8,20-14.6,28.5c-5.2,6.8-11.3,12.8-18.6,17.5c-4.9,3.2-9.9,6.4-15.1,9.1c-3.8,2-8.1,3.3-12.2,4.8
		c-2.7,1-5.5,1.7-8.2,2.4c-7.9,2.2-16,3.6-24.3,3.8c-7.1,0.1-14.2,0.6-21.3,0.4c-9.6-0.3-19.1-1.4-28.4-3.9
		c-5.8-1.6-11.8-2.9-17.4-5c-5.6-2-11.1-4.5-16.3-7.3c-7.1-3.9-14.1-8.1-20.8-12.5c-4.3-2.8-8.2-6.4-12.2-9.6
		c-1.5-1.2-1.3-2.3-0.3-3.7c8-10.5,16-21.1,24-31.7c1.5-2,3-4,4.5-5.9c1-1.3,2.1-1.5,3.5-0.5c5,3.5,9.8,7.2,15.1,10.2
		c5.9,3.4,12.1,6.4,18.3,9c4.7,2,9.6,3.4,14.5,4.7c7.8,2.1,15.9,3.2,23.9,2.5c7-0.5,14-1.2,20.7-3.7c10.9-4.1,20.4-10.2,26-20.9
		c3.4-6.6,5-13.6,5.2-20.9c0.1-3.4,0.1-6.9,0.1-10.3C1187.8,333.2,1187.7,332.5,1187.5,331.2z M1189.1,249.7
		c-0.2-10.8-1.2-18.2-3.7-25.5c-2.2-6.3-5.4-11.9-10.1-16.6c-10-9.8-22.2-14.8-36.1-15.4c-9.2-0.5-18.3,0.6-26.9,4.3
		c-7.1,3.1-13.3,7.4-18.6,13.2c-4.5,4.9-7.7,10.6-9.7,16.9c-1.2,3.8-2.2,7.7-2.4,11.6c-0.4,6.2-0.7,12.5,0.1,18.6
		c0.7,5.6,2.5,11.2,4.6,16.5c2.9,7,7.8,12.8,13.5,17.7c4.6,4,9.7,7.3,15.5,9.2c4.1,1.3,8.3,1.9,12.5,2.9c7.9,1.9,15.6,0.4,23.2-1.5
		c5.6-1.3,10.6-4.1,15.4-7.4c10.3-7.1,17.1-16.7,20.2-28.7C1188.2,259.5,1188.7,253,1189.1,249.7z"/>
	<path d="M1352.2,273.8c1.2,5.3,3.1,9.8,5.7,14c4.3,7,9.8,12.9,16.9,17.3c7.6,4.7,15.8,7.4,24.6,8.8c8.1,1.3,16.3,1.3,24.3,0
		c8.2-1.3,16.1-3.6,23.8-6.9c7.5-3.3,14.4-7.5,20.9-12.2c2-1.5,3.5-1.1,4.8,1c6.5,10.8,13.1,21.5,19.6,32.3c0.7,1.2,1.5,2.4,2.2,3.7
		c0.7,1.3,0.6,2.4-0.6,3.4c-7.7,6.1-15.6,11.9-24.5,16.2c-5.2,2.5-10.4,5.3-15.8,7.2c-6.6,2.3-13.4,4-20.3,5.4
		c-4.7,1-9.6,1.1-14.5,1.6c-3.6,0.3-7.2,1-10.7,0.7c-8.9-0.7-17.8-1.4-26.6-3c-7.5-1.4-15-3.7-22.2-6.5c-10.3-4-19.5-10-28-17.1
		c-8.5-7.1-16.1-15.2-22-24.5c-3.5-5.5-6.2-11.4-9.2-17.3c-3.8-7.6-5.6-15.9-7.1-24.2c-0.7-4.1-0.7-8.4-1-12.6
		c-0.2-2.6-0.8-5.2-0.7-7.8c0.3-6.5,0.5-13.1,1.7-19.5c2.2-12.3,5.9-24.1,12.1-35c6-10.6,13.6-19.8,22.5-28.1
		c7.9-7.4,16.5-13.6,26.3-18c6.2-2.7,12.4-5.4,18.9-7.2c5.8-1.6,11.9-2.5,17.9-3c7.2-0.6,14.5-1,21.8-0.7c5.8,0.2,11.5,1.4,17.2,2.6
		c5.3,1.2,10.7,2.7,15.8,4.6c4.7,1.8,9.1,4.2,13.4,6.7c8.8,5.2,16.5,11.8,23,19.6c5.2,6.3,10.1,13,13.4,20.5c1.9,4.3,3.9,8.5,5.3,13
		c1.5,5,2.8,10.2,3.4,15.3c1.7,13.1,1.9,26.2-0.8,39.3c-0.5,2.6-0.8,5.2-1.4,7.8c-0.4,1.9-1.7,2.6-3.7,2.6
		c-44.5,0-88.9-0.1-133.4-0.1c-3.4,0-6.7,0-10.1,0C1354.2,273.5,1353.4,273.7,1352.2,273.8z M1399.7,231.3c5,0,9.9,0,14.9,0
		c10.1,0,20.2,0,30.2,0c2.4,0,3.1-0.8,2.9-3c-0.6-5.5-1.9-10.8-4.4-15.8c-4.7-9.2-12.2-15.3-21.4-19.3c-6.6-2.9-13.8-4-21-3.7
		c-12.1,0.4-22.7,4.6-31.7,12.7c-7.6,6.8-12.8,15.2-15.9,24.9c-1.3,4.2-1.4,4.2,3,4.2C1370.7,231.3,1385.2,231.3,1399.7,231.3z"/>
	<path d="M584,164.2c2.8-2.4,5.2-4.5,7.7-6.4c6.7-5,14.1-8.8,22.1-11.6c13-4.6,26.4-5.6,39.9-4.8c9.4,0.6,18.7,2.5,27.5,6.5
		c12.8,5.7,22.9,14.3,30.7,25.8c4.4,6.5,7.7,13.5,10.1,21c2.4,7.4,3.6,15,4.2,22.7c1.7,24.8,0.4,49.7,0.7,74.5
		c0.2,21.4,0,42.8,0.1,64.3c0,3.9-0.6,4.5-4.4,4.5c-16.6,0-33.3,0-49.9,0c-0.5,0-1,0-1.4,0c-3.3-0.1-3.8-0.5-3.8-3.7
		c0-3.9,0-7.8,0-11.8c0-37.2,0-74.5,0-111.7c0-10.6-3.4-20-10.8-27.6c-6.7-7-15.3-10.5-25-11c-6.2-0.3-12.4,0-18.2,2.4
		c-10.4,4.3-18.1,11.3-22.1,22.2c-2,5.4-2.5,11-2.5,16.6c0,40.1,0,80.2,0,120.4c0,3.7-0.6,4.3-4,4.3c-17.6,0-35.2,0-52.8,0.1
		c-1.9,0-2.9-0.7-2.9-2.6c0-0.7,0-1.4,0-2.2c0-68.5,0-137,0-205.5c0-0.6,0-1.1,0-1.7c-0.1-2.1,0.9-2.8,2.9-2.8
		c15.3,0.1,30.5,0,45.8,0.1c0.6,0,1.3,0,1.9,0c3.6-0.1,4,0.4,3.9,3.9c-0.1,3.9-0.1,7.8-0.1,11.7C583.6,162.4,583.8,163.1,584,164.2z
		"/>
	<path d="M977.4,212.5c0,19.7,0.3,39.3-0.2,59c-0.2,7.8-1.5,15.7-3.3,23.3c-1.5,6.6-3.9,13.1-6.8,19.2c-4.4,9.4-10.8,17.6-18.3,24.9
		c-7.3,7.1-15.3,13.1-24.5,17.3c-6.3,2.9-13.1,5-19.8,6.6c-5.7,1.4-11.7,1.4-17.5,2.6c-10.1,2-20.1,0-29.9-1.3
		c-7.7-1-15.1-3.7-22.3-6.8c-16.2-7.1-28.8-18.3-39-32.4c-3.8-5.3-6.6-11.2-9.1-17.3c-3.9-9.7-5.9-19.8-6.9-30.1
		c-0.3-3.1-0.5-6.2-0.5-9.3c0-39.3,0-78.6,0-117.9c0-3.8,0.4-4.1,4.1-4.1c17.2,0,34.4,0,51.6,0c3.3,0,3.9,0.6,3.9,3.9
		c0,40.1-0.1,80.2,0,120.3c0,7.4,1.1,14.7,4.8,21.2c4.4,7.8,10.8,13.5,19.3,16.8c8,3.1,16.2,3.5,24.5,2c9.9-1.9,17.9-7.2,23.7-15.6
		c5.1-7.4,6.7-15.7,6.7-24.5c0-40.2,0-80.4,0-120.6c0-2.9,0.6-3.6,3.5-3.6c17.5,0,35,0,52.5,0c2.9,0,3.4,0.6,3.4,3.6
		C977.4,170.6,977.4,191.5,977.4,212.5z"/>
	<path d="M1621.1,242.2c0,13.9-0.2,27.8,0.1,41.7c0.1,8.5,2.6,16.2,9.8,21.6c3.5,2.6,7.6,4.2,11.9,5.3c7.7,2,15.5,1.8,23.3,1.6
		c5.9-0.2,11.8-0.8,17.6-1.5c3.2-0.4,4.2,0.2,4.2,3.4c0.1,7.3,0,14.7,0,22.1c0,7.3,0.1,14.5,0.1,21.8c0,1.6-0.6,2.6-2.2,2.9
		c-7.1,1.3-14.1,2.8-21.2,3.7c-6.6,0.8-13.4,1.5-20,1.3c-7.6-0.3-15.2-1.5-22.8-2.6c-4-0.6-8.1-1.3-11.8-2.8
		c-6.2-2.5-12.3-5.2-18-8.7c-8.4-5.2-15.1-12.3-20.2-20.8c-3.3-5.6-5.7-11.5-7.1-17.9c-1.1-4.9-2.1-9.8-2.9-14.7
		c-0.5-2.8-0.8-5.7-0.8-8.5c-0.1-29.2-0.1-58.5,0.1-87.7c0-6.8-0.3-5.5-5.7-5.5c-7.8-0.1-15.7,0-23.5,0c-3.6,0-4.2-0.5-4.2-4.1
		c0-14.5,0-28.9-0.1-43.4c0-2.4,0.8-3.2,3.4-3.2c8.9,0,17.8,0,26.6,0c3.1,0,3.4-0.3,3.4-3.4c0-15.6,0-31.2-0.1-46.8
		c0-3.2,0.6-3.9,3.9-3.9c17.4,0,34.9,0,52.3,0c3.3,0,3.8,0.6,3.8,4c-0.1,15.7-0.1,31.3-0.1,47c0,2.7,0.6,3.1,3.3,3.1
		c17.8,0,35.5,0,53.3,0c3,0,3.5,0.6,3.5,3.5c0,14,0,28-0.1,42c0,1,0,1.9,0,2.9c0,1.5-0.8,2.2-2.2,2.3c-0.8,0-1.6,0-2.4,0
		c-17.3,0-34.6,0-51.8,0c-3.4,0-3.6,0.2-3.6,3.7C1621.2,214.4,1621.2,228.3,1621.1,242.2C1621.1,242.2,1621.1,242.2,1621.1,242.2z"
		/>
	<path d="M861.8,424.5c0-8.5,0-16.9,0-25.4c0-3.2,1-4.1,4.2-4.1c4.4,0,8.8,0.1,13.2,0c6.2-0.2,12.3,0.5,17.9,3.4
		c7.4,3.8,12.8,9.2,14.7,17.7c1.2,5.3,1.2,10.5,0,15.8c-1.7,7.5-6.3,12.7-12.5,16.8c-5.4,3.5-11.5,4.5-17.8,4.6
		c-5.2,0.1-10.4,0-15.6,0c-3.5,0-4.2-0.7-4.2-4.2C861.9,441,861.8,432.8,861.8,424.5C861.8,424.5,861.8,424.5,861.8,424.5z
		 M874.7,424.1C874.7,424.1,874.8,424.1,874.7,424.1c0.1,1.9,0.1,3.8,0.1,5.7c0,2,0,4,0,6c-0.2,6.9,0.2,6.2,5.9,6
		c4.7-0.2,9.3-1.1,13.1-4.4c5.2-4.4,6-10.2,5.5-16.5c-0.4-4.3-2.5-7.7-5.9-10.2c-5-3.8-10.9-4-16.9-3.7c-1.4,0.1-1.8,0.9-1.8,2.3
		C874.7,414.2,874.7,419.1,874.7,424.1z"/>
	<path d="M809,427.3c0.2-1.5,0.5-2.2,0.5-2.9c0-8.5,0-16.9,0-25.4c0-3.2,0.7-3.9,4-3.9c1.8,0,3.5,0,5.3,0c2.6,0,3.4,0.8,3.5,3.4
		c0,2.9,0,5.8,0,8.6c0,14.4,0,28.8,0,43.2c0,1.5,0.5,3.4-1.5,4.2c-2.1,0.8-3.5-0.5-4.8-1.8c-7-7.4-14-14.9-21-22.4
		c-2.8-3-5.4-6-8.2-9c-0.2,0.1-0.5,0.1-0.7,0.2c-0.1,1-0.4,1.9-0.4,2.8c0,8.5,0,17.1,0,25.7c0,3.1-0.4,3.5-3.4,3.5
		c-2.2,0-4.3,0-6.5,0c-2.3,0-3.2-0.8-3.2-3.2c0-17.7,0-35.3,0-53c0-0.9,0.9-2.5,1.4-2.6c1.6,0,3.9,0,4.8,1
		c9.5,9.8,18.7,19.8,28,29.8C807.3,425.9,807.9,426.3,809,427.3z"/>
	<path d="M612.6,424.4c0-8.3,0-16.6,0-24.9c0-3.9,0.5-4.4,4.4-4.4c5.8,0,11.5,0.1,17.3,0c4.2-0.1,8.2,0.8,11.9,2.8
		c5.8,3.2,9.1,7.9,9.5,14.7c0.5,6.8-1.9,12.3-7.4,16.5c-1.6,1.2-1.6,2.4-0.6,3.9c4.2,5.7,8.4,11.4,12.5,17.2
		c0.5,0.6,0.9,1.7,0.6,2.3c-0.3,0.6-1.4,1-2.2,1c-2.5,0.1-5-0.2-7.4,0c-2.6,0.2-4.4-0.9-5.8-3c-3.4-4.8-6.9-9.5-10.4-14.3
		c-1.9-2.6-5.6-3.9-8.4-2.6c-0.8,0.3-1.4,1.9-1.4,2.9c-0.1,4.4,0,8.8,0,13.2c0,3.1-0.5,3.7-3.5,3.8c-1.9,0-3.8,0-5.8,0
		c-2.7,0-3.5-0.7-3.5-3.3C612.6,441.5,612.6,433,612.6,424.4z M625.3,413.9C625.3,413.9,625.3,413.9,625.3,413.9c0,1.8,0,3.7,0,5.5
		c0.1,1.7,0.8,2.6,2.7,2.5c2.2-0.1,4.5,0,6.7-0.1c4.3-0.2,7.7-3.3,7.9-7.1c0.3-3.9-3-7.9-7.2-8c-2.7,0-5.4-0.2-8.1-0.2
		c-1.5,0-2.1,1-2.1,2.3C625.3,410.6,625.3,412.2,625.3,413.9z"/>
	<path d="M695.3,424.3c0-8.4,0-16.8,0-25.2c0-3.3,0.7-4.1,4.1-4.1c10.6,0,21.3,0,31.9,0c3.3,0,4.1,0.8,4.1,4.1c0,1.4,0,2.9,0,4.3
		c0,2.8-0.5,3.4-3.3,3.4c-5.7,0.1-11.4,0-17,0c-1.7,0-3.4,0-5,0c-1.4,0-2,0.7-2,2.1c0.1,1.8,0.1,3.7,0,5.5c0,1.8,0.9,2.6,2.7,2.6
		c4.6,0,9.3,0,13.9,0c2.5,0,3.3,0.7,3.5,3.2c0.1,1.8,0,3.5,0,5.3c0,2.2-1,3.1-3.3,3.1c-4.6-0.1-9.3,0-13.9-0.1c-2,0-3,0.6-2.9,2.8
		c0.1,2.4,0,4.8,0,7.2c0,2.8,0.5,3.3,3.4,3.3c6.9,0,13.8,0,20.6,0c3.6,0,4,0.4,4,4c0,1.6,0,3.2,0,4.8c0,1.9-1,2.8-2.8,2.8
		c-11.6,0-23.2,0-34.8-0.1c-2.6,0-3.2-0.7-3.2-3.4C695.3,441.4,695.3,432.9,695.3,424.3z"/>
	<path d="M967.6,394.4c7.8-0.7,13.7,2.8,18.2,8.9c1.3,1.7,1.2,2.9-0.6,4.2c-1.6,1-3.1,2.3-4.6,3.5c-1.5,1.2-2.6,1.3-3.9-0.5
		c-2.8-3.8-7.3-5.2-11.7-4c-2,0.5-3.3,1.6-3.6,3.7c-0.3,1.9,0.6,3.5,2.3,4.3c4.1,2,8.2,3.9,12.2,6c3.8,2,7.5,4.1,10,7.8
		c3.6,5.3,3,14.2-1.2,19.3c-5.4,6.6-16.3,8.4-23.7,6.3c-6.3-1.8-10.8-5.5-14.8-10.4c-1.1-1.3-1.1-2.4,0.3-3.5
		c1.9-1.5,3.8-2.9,5.8-4.3c1.2-0.9,2.3-0.7,3.3,0.6c3.7,4.9,8.6,7.1,14.8,6.4c2.2-0.3,4.5-2.2,4.8-4.1c0.4-2.5-0.6-4.5-3-5.7
		c-5.3-2.7-10.7-5.2-15.9-8.2c-5.1-2.9-8.3-7.5-8.4-13.4c-0.1-4.9,1.8-9.5,6-12.7C958,395.3,962.5,393.9,967.6,394.4z"/>
	<path d="M553.7,395.1c7,0,14.1,0,21.1,0c3.1,0,4.2,1,4.1,4.2c0,1.4-0.1,2.7,0,4.1c0.1,2.8-0.5,3.5-3.4,3.6c-3.8,0.1-7.7,0-11.5,0
		c-4,0-3.9,0-3.9,4c0,12-0.1,24,0.1,35.9c0.1,7.5-0.6,6.5-6.5,6.6c-7.8,0.1-6.3-1-6.3-6.2c0-12.6,0-25.2,0.1-37.8
		c0-1.8-0.7-2.4-2.4-2.4c-4.2,0-8.5,0-12.7,0c-3,0-3.2-0.3-3.2-3.3c0-1.9,0-3.8,0-5.8c0-1.9,0.9-2.8,3-2.8
		C539.3,395.1,546.5,395.1,553.7,395.1C553.7,395.1,553.7,395.1,553.7,395.1z"/>
	<path d="M331.4,282.1c0-30.9,0-61.8,0-92.7c0-3.4,0.6-4.1,4-4.1c12,0,24,0,36,0c3.3,0,4.1,0.8,4.1,4.1c0,39.3,0,78.6,0,117.9
		c0,22.2,0,44.4,0,66.6c0,4.3-0.4,4.8-4.8,4.8c-11.5,0-23,0-34.5,0c-4.4,0-4.7-0.4-4.7-4.8C331.4,343.3,331.4,312.7,331.4,282.1
		C331.4,282.1,331.4,282.1,331.4,282.1z"/>
	<path d="M259.1,311.1c0-21,0-42,0-63c0-4.7,0.2-4.8,4.8-4.8c11.6,0,23.2,0,34.8,0c3.4,0,4.3,0.9,4.3,4.2c0,34.1,0,68.2,0,102.3
		c0,8.2,0,16.3,0,24.5c0,3.8-0.7,4.5-4.5,4.5c-12.1,0-24.1,0-36.2,0.1c-2.2,0-3.1-0.8-3.2-2.9c0-1,0-1.9,0-2.9
		C259.1,352.4,259.1,331.7,259.1,311.1z"/>
	<path d="M231.7,340.4c0,11.5,0,23,0,34.5c0,3.5-0.4,3.8-3.8,3.8c-11.6,0-23.2,0-34.8,0c-3.9,0-4.5-0.5-4.5-4.3c0-22,0.1-44,0-65.9
		c0-7.7,0.6-6.4,6.6-6.5c11.1,0,22.2,0,33.4,0c2.8,0,3.2,0.4,3.2,3.2C231.7,316.9,231.7,328.6,231.7,340.4z"/>
	<path d="M189.2,146.1c13.7-0.9,23.1,10.9,23.8,21.3c1,15.6-11.5,25.9-23.5,25.8c-13.6-0.1-23.4-10.7-23.9-23.1
		C165,157.5,175.6,145.2,189.2,146.1z"/>
</g>
<circle cx="54.6" cy="30.5" r="20.7"/>
</svg>
